<svg width="17" height="15" viewBox="0 0 17 15" fill="none" xmlns="http://www.w3.org/2000/svg">
<path fill-rule="evenodd" clip-rule="evenodd" d="M2.86798 2.73104H15.5344C15.9673 2.73104 16.2847 3.14261 16.1799 3.56617L14.828 9.02858C14.7575 9.31355 14.5119 9.51929 14.2216 9.53651L3.58914 10.1678C3.77922 10.6166 4.21962 10.9246 4.725 10.9246H12.1551C13.2673 10.9246 14.1721 11.8387 14.1721 12.9623C14.1721 14.0859 13.2673 15 12.1551 15C10.7614 15 9.78164 13.5956 10.2584 12.2688H6.61713C7.09454 13.5973 6.11264 15 4.7205 15C3.0432 15 2.10107 13.0389 3.1322 11.7086C2.56029 11.2509 2.2283 10.5773 2.174 9.95661C1.33078 0.465765 1.36828 0.887912 1.44727 1.77707C1.50028 2.37367 1.57195 3.18052 1.4088 1.34424H0.665306C0.297867 1.34424 0 1.04332 0 0.672119C0 0.300917 0.297867 0 0.665306 0H2.01705C2.36142 0 2.6489 0.265519 2.67969 0.612045L2.86798 2.73104ZM4.03409 12.9623C4.03409 13.3447 4.34204 13.6558 4.7205 13.6558C5.099 13.6558 5.40694 13.3447 5.40694 12.9623C5.40694 12.5799 5.099 12.2688 4.7205 12.2688C4.34204 12.2688 4.03409 12.5799 4.03409 12.9623ZM12.1551 13.6558C11.7766 13.6558 11.4686 13.3447 11.4686 12.9623C11.4686 12.5799 11.7766 12.2688 12.1551 12.2688C12.5335 12.2688 12.8415 12.5799 12.8415 12.9623C12.8415 13.3447 12.5335 13.6558 12.1551 13.6558ZM3.41004 8.83183L13.6557 8.22357L14.6823 4.07525H2.98741L3.41004 8.83183Z" fill="white"/>
</svg>
