<svg width="187" height="40" viewBox="0 0 187 40" fill="none" xmlns="http://www.w3.org/2000/svg">
<g clip-path="url(#clip0)">
<path d="M52.3 17.1C52 17.2 51.6 17.4 51.1 17.5C50.6 17.6 50.2 17.7 49.6 17.7C49.3 17.7 49 17.7 48.7 17.6C48.4 17.5 48.2 17.4 47.9 17.2C47.7 17 47.5 16.8 47.4 16.5C47.3 16.2 47.2 15.9 47.2 15.4V10.1H46V8.30005H47.2V5.30005H49.6V8.30005H51.5V10.1H49.6V14.6C49.6 14.9 49.7 15.2 49.9 15.3C50.1 15.4 50.3 15.5 50.5 15.5C50.7 15.5 51 15.5 51.2 15.4C51.4 15.3 51.6 15.2 51.8 15.2L52.3 17.1Z" fill="white"/>
<path d="M62.8 17.6H60.4V12.4C60.4 11.7 60.3 11.1 60 10.8C59.7 10.5 59.3 10.3 58.8 10.3C58.6 10.3 58.4 10.3 58.1 10.4C57.8 10.5 57.6 10.6 57.4 10.8C57.2 11 57 11.2 56.8 11.4C56.6 11.6 56.5 11.9 56.4 12.2V17.6H54V4.69995H56.4V10.1C56.9 9.49995 57.4 8.99995 58 8.69995C58.6 8.39995 59.2 8.19995 59.9 8.19995C60.5 8.19995 61 8.29995 61.4 8.49995C61.8 8.69995 62.1 8.99995 62.3 9.29995C62.5 9.59995 62.7 9.99995 62.7 10.5C62.8 10.9 62.8 11.4 62.8 11.8V17.6Z" fill="white"/>
<path d="M69.9 17.7999C69.2 17.7999 68.5 17.6999 67.9 17.3999C67.3 17.0999 66.8 16.7999 66.4 16.3999C66 15.9999 65.6 15.4999 65.4 14.8999C65.2 14.2999 65 13.6999 65 12.9999C65 12.2999 65.1 11.6999 65.3 11.0999C65.5 10.4999 65.9 9.99985 66.3 9.59985C66.7 9.19985 67.2 8.79985 67.9 8.49985C68.5 8.19985 69.2 8.09985 69.9 8.09985C70.7 8.09985 71.3 8.19985 71.9 8.49985C72.5 8.79985 73 9.09985 73.4 9.49985C73.8 9.89985 74.1 10.3999 74.4 10.9999C74.6 11.5999 74.7 12.1999 74.7 12.7999C74.7 12.9999 74.7 13.0999 74.7 13.1999C74.7 13.2999 74.7 13.4999 74.7 13.5999H67.5C67.5 13.9999 67.6 14.2999 67.8 14.5999C67.9 14.8999 68.1 15.0999 68.4 15.2999C68.7 15.4999 68.9 15.6999 69.2 15.7999C69.5 15.8999 69.8 15.9999 70.1 15.9999C70.6 15.9999 71 15.8999 71.4 15.6999C71.8 15.4999 72.1 15.1999 72.3 14.7999L74.3 15.3999C74 16.0999 73.4 16.6999 72.7 17.0999C71.9 17.5999 71 17.7999 69.9 17.7999ZM72.3 12.1999C72.2 11.4999 72 10.8999 71.5 10.4999C71 10.0999 70.5 9.89985 69.8 9.89985C69.5 9.89985 69.2 9.99985 68.9 10.0999C68.6 10.1999 68.4 10.3999 68.2 10.5999C68 10.7999 67.8 10.9999 67.7 11.2999C67.6 11.5999 67.5 11.8999 67.5 12.1999H72.3Z" fill="white"/>
<path d="M81.9 4.69995H84.3V14.7C84.3 15 84.4 15.3 84.6 15.5C84.8 15.7 85 15.8 85.3 15.8C85.4 15.8 85.6 15.8 85.8 15.7C86 15.7 86.1 15.6 86.3 15.5L86.6 17.3C86.3 17.5 85.9 17.6 85.5 17.7C85.1 17.8 84.7 17.8 84.4 17.8C83.7 17.8 83.1 17.6 82.7 17.2C82.3 16.8 82.1 16.2 82.1 15.5V4.69995H81.9Z" fill="white"/>
<path d="M92.5 17.8C91.7 17.8 91.1 17.7 90.5 17.4C89.9 17.1 89.4 16.8 89 16.3C88.6 15.8 88.3 15.3 88 14.8C87.7 14.3 87.7 13.6 87.7 13C87.7 12.4 87.8 11.7 88 11.2C88.2 10.7 88.5 10.1 89 9.69995C89.4 9.29995 89.9 8.89995 90.5 8.59995C91.1 8.29995 91.8 8.19995 92.5 8.19995C93.3 8.19995 93.9 8.29995 94.5 8.59995C95.1 8.89995 95.6 9.19995 96 9.69995C96.4 10.1 96.7 10.7 97 11.2C97.3 11.7 97.3 12.4 97.3 13C97.3 13.6 97.2 14.2 97 14.8C96.8 15.4 96.5 15.9 96 16.3C95.6 16.7 95.1 17.1 94.5 17.4C94 17.7 93.3 17.8 92.5 17.8ZM90.1 13C90.1 13.4 90.2 13.8 90.3 14.1C90.4 14.4 90.6 14.7 90.8 15C91 15.2 91.3 15.4 91.6 15.6C91.9 15.7 92.2 15.8 92.6 15.8C92.9 15.8 93.3 15.7 93.6 15.6C93.9 15.5 94.2 15.3 94.4 15C94.6 14.8 94.8 14.5 94.9 14.1C95 13.8 95.1 13.4 95.1 13C95.1 12.6 95 12.2 94.9 11.9C94.8 11.6 94.6 11.3 94.4 11C94.2 10.8 93.9 10.6 93.6 10.4C93.3 10.3 93 10.2 92.6 10.2C92.3 10.2 91.9 10.3 91.6 10.4C91.3 10.5 91 10.7 90.8 11C90.6 11.2 90.4 11.5 90.3 11.9C90.2 12.2 90.1 12.6 90.1 13Z" fill="white"/>
<path d="M108.3 17.5999H105.9V12.3999C105.9 11.6999 105.8 11.0999 105.5 10.7999C105.2 10.4999 104.9 10.2999 104.4 10.2999C104.2 10.2999 103.9 10.2999 103.7 10.3999C103.5 10.4999 103.2 10.5999 103 10.7999C102.8 10.9999 102.6 11.1999 102.4 11.3999C102.2 11.5999 102.1 11.8999 102 12.1999V17.5999H99.6V8.29985H101.7V9.99985C102 9.39985 102.5 8.89985 103.2 8.59985C103.8 8.29985 104.6 8.09985 105.4 8.09985C106 8.09985 106.5 8.19985 106.8 8.39985C107.2 8.59985 107.4 8.89985 107.6 9.19985C107.8 9.49985 107.9 9.89985 108 10.3999C108.1 10.7999 108.1 11.2999 108.1 11.6999V17.5999H108.3Z" fill="white"/>
<path d="M114.9 17.8C114.3 17.8 113.7 17.7 113.1 17.4C112.6 17.2 112.1 16.8 111.7 16.4C111.3 16 111 15.5 110.8 14.9C110.6 14.3 110.5 13.7 110.5 13C110.5 12.3 110.6 11.7 110.8 11.1C111 10.5 111.3 9.99995 111.7 9.59995C112.1 9.19995 112.5 8.79995 113 8.59995C113.5 8.39995 114.1 8.19995 114.7 8.19995C115.4 8.19995 116 8.39995 116.5 8.69995C117.1 8.99995 117.5 9.49995 117.8 9.99995V4.69995H120.2V14.9C120.2 15.1 120.2 15.3 120.3 15.4C120.4 15.5 120.5 15.6 120.7 15.6V17.6C120.3 17.7 120 17.7 119.7 17.7C119.3 17.7 118.9 17.6 118.7 17.4C118.4 17.2 118.3 16.9 118.2 16.6L118.1 16C117.8 16.6 117.3 17 116.7 17.3C116.2 17.7 115.6 17.8 114.9 17.8ZM115.6 15.8C115.8 15.8 116.1 15.8 116.3 15.7C116.5 15.6 116.8 15.5 117 15.4C117.2 15.3 117.4 15.1 117.5 14.9C117.7 14.7 117.8 14.5 117.9 14.3V12C117.8 11.7 117.7 11.5 117.5 11.3C117.3 11.1 117.1 10.9 116.9 10.7C116.7 10.5 116.4 10.4 116.2 10.3C116 10.2 115.7 10.2 115.5 10.2C115.1 10.2 114.8 10.3 114.5 10.4C114.2 10.6 113.9 10.8 113.7 11C113.5 11.3 113.3 11.6 113.2 11.9C113.1 12.2 113 12.6 113 13C113 13.4 113.1 13.8 113.2 14.1C113.3 14.4 113.5 14.7 113.7 15C113.9 15.3 114.2 15.4 114.5 15.6C114.8 15.7 115.2 15.8 115.6 15.8Z" fill="white"/>
<path d="M127.5 17.8C126.7 17.8 126.1 17.7 125.5 17.4C124.9 17.1 124.4 16.8 124 16.3C123.6 15.9 123.3 15.3 123 14.8C122.7 14.3 122.7 13.6 122.7 13C122.7 12.4 122.8 11.7 123 11.2C123.2 10.7 123.5 10.1 124 9.69995C124.4 9.29995 124.9 8.89995 125.5 8.59995C126.1 8.29995 126.8 8.19995 127.5 8.19995C128.3 8.19995 128.9 8.29995 129.5 8.59995C130.1 8.89995 130.6 9.19995 131 9.69995C131.4 10.1 131.7 10.7 132 11.2C132.2 11.8 132.3 12.4 132.3 13C132.3 13.6 132.2 14.2 132 14.8C131.8 15.4 131.5 15.9 131 16.3C130.5 16.7 130.1 17.1 129.5 17.4C128.9 17.7 128.3 17.8 127.5 17.8ZM125.1 13C125.1 13.4 125.2 13.8 125.3 14.1C125.4 14.4 125.6 14.7 125.8 15C126 15.2 126.3 15.4 126.6 15.6C126.9 15.7 127.2 15.8 127.6 15.8C127.9 15.8 128.3 15.7 128.6 15.6C128.9 15.5 129.2 15.3 129.4 15C129.6 14.7 129.8 14.5 129.9 14.1C130 13.8 130.1 13.4 130.1 13C130.1 12.6 130 12.2 129.9 11.9C129.8 11.6 129.6 11.3 129.4 11C129.2 10.8 128.9 10.6 128.6 10.4C128.3 10.3 128 10.2 127.6 10.2C127.3 10.2 126.9 10.3 126.6 10.4C126.3 10.5 126 10.7 125.8 11C125.6 11.2 125.4 11.5 125.3 11.9C125.1 12.2 125.1 12.6 125.1 13Z" fill="white"/>
<path d="M142.8 17.5999H140.4V12.3999C140.4 11.6999 140.3 11.0999 140 10.7999C139.7 10.4999 139.4 10.2999 138.9 10.2999C138.7 10.2999 138.4 10.2999 138.2 10.3999C138 10.4999 137.7 10.5999 137.5 10.7999C137.3 10.9999 137.1 11.1999 136.9 11.3999C136.7 11.5999 136.6 11.8999 136.5 12.1999V17.5999H134.1V8.29985H136.2V9.99985C136.5 9.39985 137 8.89985 137.7 8.59985C138.3 8.29985 139.1 8.09985 139.9 8.09985C140.5 8.09985 141 8.19985 141.3 8.39985C141.7 8.59985 141.9 8.89985 142.1 9.19985C142.3 9.49985 142.4 9.89985 142.5 10.3999C142.6 10.7999 142.6 11.2999 142.6 11.6999V17.5999H142.8Z" fill="white"/>
<path d="M150.5 4.69995H152.9V14.7C152.9 15 153 15.3 153.1 15.5C153.3 15.7 153.5 15.8 153.8 15.8C153.9 15.8 154.1 15.8 154.3 15.7C154.5 15.7 154.6 15.6 154.8 15.5L155.1 17.3C154.8 17.5 154.4 17.6 154 17.7C153.6 17.8 153.2 17.8 152.8 17.8C152.1 17.8 151.5 17.6 151.1 17.2C150.7 16.8 150.5 16.2 150.5 15.5V4.69995Z" fill="white"/>
<path d="M161.1 17.8C160.4 17.8 159.7 17.7 159.1 17.4C158.5 17.1 158 16.8 157.6 16.4C157.2 16 156.8 15.5 156.6 14.9C156.4 14.3 156.3 13.7 156.3 13.1C156.3 12.4 156.4 11.8 156.6 11.2C156.8 10.6 157.2 10.1 157.6 9.69995C158 9.29995 158.5 8.89995 159.2 8.59995C159.8 8.29995 160.5 8.19995 161.2 8.19995C162 8.19995 162.6 8.29995 163.2 8.59995C163.8 8.89995 164.3 9.19995 164.7 9.59995C165.1 9.99995 165.4 10.5 165.7 11.1C165.9 11.7 166 12.3 166 12.9C166 13.1 166 13.2 166 13.3C166 13.4 166 13.6 166 13.7H158.8C158.8 14.1 158.9 14.4 159.1 14.7C159.2 15 159.4 15.2 159.7 15.4C159.9 15.6 160.2 15.8 160.5 15.9C160.8 16 161.1 16.1 161.4 16.1C161.9 16.1 162.3 16 162.7 15.8C163.1 15.6 163.4 15.3 163.6 14.9L165.6 15.5C165.3 16.2 164.7 16.8 164 17.2C163.1 17.6 162.2 17.8 161.1 17.8ZM163.6 12.2C163.5 11.5 163.3 10.9 162.8 10.5C162.3 10.1 161.8 9.89995 161.1 9.89995C160.8 9.89995 160.5 9.99995 160.2 10.1C159.9 10.2 159.7 10.4 159.5 10.6C159.3 10.8 159.1 11 159 11.3C158.9 11.6 158.8 11.9 158.8 12.2H163.6Z" fill="white"/>
<path d="M176.8 17.5999H174.4V12.3999C174.4 11.6999 174.3 11.0999 174 10.7999C173.7 10.4999 173.4 10.2999 172.9 10.2999C172.7 10.2999 172.4 10.2999 172.2 10.3999C172 10.4999 171.7 10.5999 171.5 10.7999C171.3 10.9999 171.1 11.1999 170.9 11.3999C170.7 11.5999 170.6 11.8999 170.5 12.1999V17.5999H168.1V8.29985H170.2V9.99985C170.5 9.39985 171 8.89985 171.7 8.59985C172.3 8.29985 173.1 8.09985 173.9 8.09985C174.5 8.09985 175 8.19985 175.3 8.39985C175.7 8.59985 175.9 8.89985 176.1 9.19985C176.3 9.49985 176.4 9.89985 176.5 10.3999C176.6 10.7999 176.6 11.2999 176.6 11.6999V17.5999H176.8Z" fill="white"/>
<path d="M183.1 17.8C182.3 17.8 181.6 17.7 180.8 17.4C180.1 17.2 179.4 16.8 178.9 16.3L179.8 14.8C180.4 15.2 180.9 15.5 181.5 15.7C182 15.9 182.6 16 183.1 16C183.6 16 183.9 15.9 184.2 15.7C184.5 15.5 184.6 15.3 184.6 14.9C184.6 14.5 184.4 14.3 184.1 14.2C183.8 14 183.3 13.9 182.5 13.7C181.9 13.5 181.4 13.4 181 13.2C180.6 13 180.2 12.9 180 12.7C179.7 12.5 179.5 12.3 179.4 12C179.3 11.7 179.2 11.4 179.2 11.1C179.2 10.6 179.3 10.2 179.5 9.8C179.7 9.4 179.9 9.1 180.3 8.8C180.6 8.5 181 8.3 181.5 8.2C181.9 8.1 182.4 8 182.9 8C183.6 8 184.3 8.1 184.9 8.3C185.5 8.5 186.1 8.8 186.6 9.3L185.6 10.7C185.1 10.3 184.7 10.1 184.2 9.9C183.8 9.7 183.3 9.7 182.9 9.7C182.5 9.7 182.2 9.8 181.9 9.9C181.6 10.1 181.5 10.3 181.5 10.7C181.5 10.9 181.5 11 181.6 11.1C181.7 11.2 181.8 11.3 181.9 11.4C182 11.5 182.2 11.6 182.5 11.6C182.8 11.6 183 11.8 183.4 11.8C184 12 184.6 12.1 185 12.3C185.5 12.5 185.8 12.7 186.1 12.9C186.4 13.1 186.6 13.4 186.7 13.6C186.8 13.9 186.9 14.2 186.9 14.6C186.9 15.5 186.6 16.2 185.9 16.8C185.2 17.5 184.2 17.8 183.1 17.8Z" fill="white"/>
<path d="M46.3 28.2999C46.3 27.6999 46.4 26.9999 46.6 26.4999C46.8 25.8999 47.1 25.3999 47.6 24.9999C48 24.5999 48.5 24.1999 49.1 23.9999C49.7 23.6999 50.3 23.5999 51 23.5999C51.9 23.5999 52.7 23.7999 53.4 24.1999C54.1 24.5999 54.6 25.1999 54.9 25.7999L53.4 26.2999C53.2 25.8999 52.8 25.4999 52.4 25.2999C52 25.0999 51.5 24.8999 51 24.8999C50.6 24.8999 50.2 24.9999 49.8 25.1999C49.4 25.3999 49.1 25.5999 48.8 25.8999C48.5 26.1999 48.3 26.5999 48.2 26.9999C48 27.3999 48 27.8999 48 28.3999C48 28.8999 48.1 29.2999 48.2 29.7999C48.4 30.1999 48.6 30.5999 48.9 30.8999C49.2 31.1999 49.5 31.4999 49.9 31.5999C50.3 31.7999 50.7 31.8999 51.1 31.8999C51.4 31.8999 51.6 31.8999 51.9 31.7999C52.2 31.6999 52.4 31.5999 52.6 31.4999C52.8 31.3999 53 31.1999 53.2 30.9999C53.4 30.7999 53.5 30.5999 53.6 30.3999L55.1 30.8999C55 31.1999 54.8 31.5999 54.5 31.7999C54.2 32.0999 53.9 32.2999 53.6 32.4999C53.3 32.6999 52.9 32.8999 52.5 32.9999C52.1 33.0999 51.6 33.1999 51.2 33.1999C50.5 33.1999 49.9 33.0999 49.3 32.7999C48.7 32.4999 48.2 32.1999 47.8 31.7999C47.4 31.3999 47.1 30.8999 46.8 30.2999C46.4 29.5999 46.3 28.9999 46.3 28.2999Z" fill="#EFC25D"/>
<path d="M61.3 33.2001C60.6 33.2001 60 33.1 59.4 32.8C58.8 32.5 58.3 32.2 57.9 31.8C57.5 31.4 57.2 30.9 57 30.3C56.8 29.7 56.7 29.1 56.7 28.5C56.7 27.9 56.8 27.2001 57 26.7001C57.2 26.1001 57.6 25.6001 58 25.2001C58.4 24.8001 58.9 24.4001 59.5 24.2001C60.1 23.9001 60.7 23.8 61.4 23.8C62.1 23.8 62.7 23.9001 63.3 24.2001C63.9 24.5001 64.4 24.8001 64.8 25.2001C65.2 25.6001 65.5 26.1001 65.8 26.7001C66 27.3001 66.1 27.9 66.1 28.5C66.1 29.1 66 29.7 65.8 30.3C65.6 30.9 65.3 31.4 64.8 31.8C64.4 32.2 63.9 32.6 63.3 32.8C62.7 33 62 33.2001 61.3 33.2001ZM58.3 28.4C58.3 28.9 58.4 29.3001 58.5 29.7001C58.7 30.1001 58.9 30.5 59.2 30.8C59.5 31.1 59.8 31.3 60.2 31.5C60.6 31.7 61 31.8 61.4 31.8C61.8 31.8 62.2 31.7 62.6 31.5C63 31.3 63.3 31.1 63.6 30.8C63.9 30.5 64.1 30.1001 64.3 29.7001C64.5 29.3001 64.5 28.8 64.5 28.3C64.5 27.8 64.4 27.4 64.3 27C64.2 26.6 63.9 26.2 63.6 25.9C63.3 25.6 63 25.3001 62.6 25.2001C62.2 25.0001 61.8 24.9 61.4 24.9C61 24.9 60.6 25.0001 60.2 25.2001C59.8 25.4001 59.5 25.6 59.2 25.9C58.9 26.2 58.7 26.6 58.5 27C58.4 27.5 58.3 27.9 58.3 28.4Z" fill="#EFC25D"/>
<path d="M82.6 32.9999H81V27.7999C81 26.7999 80.8 26.0999 80.5 25.6999C80.2 25.1999 79.7 24.9999 79.1 24.9999C78.5 24.9999 77.9 25.1999 77.4 25.6999C76.9 26.1999 76.5 26.6999 76.3 27.4999V32.9999H74.7V27.7999C74.7 26.7999 74.5 26.0999 74.2 25.5999C74.1 25.1999 73.6 24.9999 73 24.9999C72.4 24.9999 71.8 25.1999 71.3 25.6999C70.8 26.0999 70.4 26.6999 70.2 27.4999V32.9999H68.6V23.6999H70V25.6999C70.4 24.9999 70.9 24.4999 71.5 24.0999C72.1 23.6999 72.8 23.4999 73.5 23.4999C74.3 23.4999 74.9 23.6999 75.3 24.0999C75.8 24.4999 76 25.0999 76.1 25.6999C76.9 24.1999 78.1 23.3999 79.6 23.3999C80.1 23.3999 80.6 23.4999 80.9 23.6999C81.3 23.8999 81.5 24.1999 81.8 24.4999C82 24.7999 82.2 25.2999 82.3 25.6999C82.4 26.1999 82.4 26.6999 82.4 27.1999V32.9999H82.6Z" fill="#EFC25D"/>
<path d="M90.7 33.1999C89.9 33.1999 89.3 32.9999 88.7 32.5999C88.1 32.1999 87.7 31.6999 87.3 31.1999V36.7999H85.7V23.7999H87.1V25.4999C87.5 24.8999 87.9 24.4999 88.5 24.0999C89.1 23.6999 89.7 23.5999 90.4 23.5999C91 23.5999 91.6 23.6999 92.2 23.9999C92.8 24.2999 93.2 24.5999 93.6 25.0999C94 25.4999 94.3 26.0999 94.5 26.5999C94.7 27.1999 94.8 27.7999 94.8 28.3999C94.8 29.0999 94.7 29.6999 94.5 30.2999C94.3 30.8999 94 31.3999 93.7 31.7999C93.3 32.1999 92.9 32.5999 92.4 32.7999C91.9 32.9999 91.3 33.1999 90.7 33.1999ZM90.2 31.7999C90.7 31.7999 91.1 31.6999 91.4 31.4999C91.8 31.2999 92.1 30.9999 92.4 30.6999C92.7 30.3999 92.9 29.9999 93 29.5999C93.1 29.1999 93.2 28.7999 93.2 28.2999C93.2 27.7999 93.1 27.3999 93 26.9999C92.8 26.5999 92.6 26.1999 92.3 25.8999C92 25.5999 91.7 25.2999 91.3 25.1999C90.9 25.0999 90.5 24.8999 90.1 24.8999C89.8 24.8999 89.5 24.9999 89.2 25.0999C88.9 25.1999 88.6 25.3999 88.4 25.4999C88.1 25.6999 87.9 25.8999 87.7 26.1999C87.5 26.4999 87.4 26.6999 87.3 26.9999V29.5999C87.4 29.8999 87.6 30.1999 87.8 30.4999C88 30.7999 88.2 30.9999 88.5 31.1999C88.8 31.3999 89 31.5999 89.3 31.6999C89.6 31.7999 89.9 31.7999 90.2 31.7999Z" fill="#EFC25D"/>
<path d="M99.8 33.2C99.4 33.2 99 33.1 98.6 33C98.2 32.9 97.9 32.6 97.6 32.4C97.3 32.1 97.1 31.8 96.9 31.5C96.7 31.2 96.7 30.8 96.7 30.4C96.7 29.9999 96.8 29.6 97 29.2C97.2 28.9 97.5 28.5999 97.8 28.2999C98.2 28.0999 98.6 27.9 99 27.7C99.5 27.6 100 27.5 100.6 27.5C101.1 27.5 101.5 27.5 102 27.6C102.5 27.7 102.9 27.8 103.2 27.9V27.2C103.2 26.4 103 25.9 102.6 25.4C102.2 25 101.6 24.7999 100.8 24.7999C99.9 24.7999 98.9 25.1999 97.9 25.9L97.4 24.9C98.6 24.1 99.8 23.7 101 23.7C102.2 23.7 103.2 24 103.8 24.7C104.5 25.3 104.8 26.3 104.8 27.4V31.2C104.8 31.6 105 31.7999 105.3 31.7999V33C105.1 33 105 32.9999 104.9 33.0999C104.8 33.0999 104.7 33.0999 104.6 33.0999C104.3 33.0999 104 32.9999 103.9 32.7999C103.7 32.5999 103.6 32.3999 103.6 32.0999V31.4C103.2 32 102.7 32.4 102 32.7C101.2 33 100.6 33.2 99.8 33.2ZM100.2 32C100.8 32 101.3 31.9 101.8 31.7C102.3 31.5 102.6 31.2 102.9 30.9C103.1 30.7 103.2 30.4 103.2 30.2V28.7999C102.4 28.4999 101.7 28.4 100.8 28.4C100 28.4 99.4 28.5999 98.9 28.9C98.4 29.2 98.2 29.7 98.2 30.2C98.2 30.5 98.3 30.7 98.4 30.9C98.5 31.0999 98.6 31.3 98.8 31.5C99 31.7 99.2 31.7999 99.4 31.9C99.7 31.9 100 32 100.2 32Z" fill="#EFC25D"/>
<path d="M116 33H114.4V27.8C114.4 26.8 114.3 26.1 113.9 25.6C113.6 25.1 113.1 24.9 112.5 24.9C112.2 24.9 111.9 25 111.5 25.1C111.2 25.2 110.9 25.4 110.6 25.6C110.3 25.8 110.1 26.1 109.9 26.4C109.7 26.7 109.5 27 109.4 27.4V33H108V23.7H109.4V25.7C109.8 25.1 110.3 24.5 111 24.1C111.7 23.7 112.4 23.5 113.3 23.5C113.8 23.5 114.3 23.6 114.6 23.8C115 24 115.2 24.3 115.4 24.6C115.6 24.9 115.8 25.4 115.9 25.8C116 26.3 116 26.8 116 27.3V33Z" fill="#EFC25D"/>
<path d="M119.4 35.5C119.6 35.5 119.7 35.4999 119.9 35.5999C120.1 35.5999 120.2 35.5999 120.3 35.5999C120.4 35.5999 120.6 35.6 120.7 35.5C120.8 35.4 120.9 35.2999 121 35.0999C121.1 34.8999 121.2 34.5999 121.4 34.2999C121.5 33.9999 121.7 33.5 121.9 33L118 23.7H119.6L122.8 31.6L125.7 23.7H127.2L122.7 35.4C122.5 35.8 122.3 36.2 121.9 36.5C121.5 36.8 121 37 120.3 37C120.2 37 120.1 37 120 37C119.9 37 119.7 37 119.6 36.9V35.5H119.4Z" fill="#EFC25D"/>
<path d="M128.5 33V31H129.8V33H128.5Z" fill="#EFC25D"/>
<path d="M19.9 39.8C8.9 39.8 0 30.9 0 19.9C0 8.9 8.9 0 19.9 0C30.9 0 39.8 8.9 39.8 19.9C39.8 30.9 30.9 39.8 19.9 39.8ZM19.9 2.6C10.4 2.6 2.6 10.4 2.6 19.9C2.6 29.4 10.4 37.2 19.9 37.2C29.4 37.2 37.2 29.4 37.2 19.9C37.2 10.4 29.4 2.6 19.9 2.6Z" fill="#EFC25D"/>
<path d="M29.4 21.6C28.8 21.6 28.4 21.1 28.4 20.6C28.4 20.6 28.5 16.8 26.1 14.4C24.7 12.9 22.6 12.2 19.9 12.2C19.3 12.2 18.9 11.7 18.9 11.2C18.9 10.6 19.4 10.2 19.9 10.2C23.1 10.2 25.7 11.2 27.5 13.1C30.5 16.2 30.4 20.6 30.4 20.8C30.4 21.1 29.9 21.6 29.4 21.6Z" fill="#EFC25D"/>
</g>
<defs>
<clipPath id="clip0">
<rect width="186.8" height="39.8" fill="white"/>
</clipPath>
</defs>
</svg>
