<svg width="19" height="12" viewBox="0 0 19 12" fill="none" xmlns="http://www.w3.org/2000/svg">
<path d="M18.6875 0.26443L18.6992 0.27504L18.7129 0.28296C18.8158 0.342381 18.85 0.409103 18.85 0.489796V1.71429C18.85 1.79814 18.8122 1.87917 18.7002 1.96001L18.7879 2.08163L18.7002 1.96001C18.6213 2.01691 18.5006 2.05408 18.3214 2.05408H0.678571C0.508591 2.05408 0.370444 2.02056 0.25868 1.95961C0.182898 1.88676 0.15 1.80707 0.15 1.71429V0.489796C0.15 0.393736 0.184512 0.327322 0.257433 0.274687C0.36987 0.19353 0.507736 0.15 0.678571 0.15H18.3214C18.4936 0.15 18.6094 0.193964 18.6875 0.26443ZM18.6875 5.16239L18.6992 5.173L18.7129 5.18092C18.8158 5.24034 18.85 5.30706 18.85 5.38776V6.61225C18.85 6.69609 18.8122 6.77712 18.7002 6.85797C18.6213 6.91487 18.5006 6.95204 18.3214 6.95204H0.678571C0.508591 6.95204 0.370444 6.91852 0.25868 6.85757C0.182898 6.78472 0.15 6.70503 0.15 6.61225V5.38776C0.15 5.2917 0.184512 5.22528 0.257433 5.17265C0.36987 5.09149 0.507737 5.04796 0.678571 5.04796H18.3214C18.4936 5.04796 18.6094 5.09192 18.6875 5.16239ZM18.6875 10.0603L18.6992 10.071L18.7129 10.0789C18.8158 10.1383 18.85 10.205 18.85 10.2857V11.5102C18.85 11.5941 18.8122 11.6751 18.7002 11.7559C18.6213 11.8128 18.5006 11.85 18.3214 11.85H0.678571C0.508591 11.85 0.370444 11.8165 0.258679 11.7555C0.182898 11.6827 0.15 11.603 0.15 11.5102V10.2857C0.15 10.1897 0.184512 10.1232 0.257433 10.0706C0.36987 9.98945 0.507736 9.94592 0.678571 9.94592H18.3214C18.4936 9.94592 18.6094 9.98988 18.6875 10.0603Z" fill="white" stroke="#151F2A" stroke-width="0.3"/>
</svg>
