<svg width="15" height="15" viewBox="0 0 15 15" fill="none" xmlns="http://www.w3.org/2000/svg">
<path fill-rule="evenodd" clip-rule="evenodd" d="M9.95329 7.90904C11.0141 8.27511 11.9864 8.87982 12.8033 9.69668C14.2199 11.1133 15 12.9967 15 15H13.8281C13.8281 11.5107 10.9893 8.67187 7.5 8.67187C4.01065 8.67187 1.17187 11.5107 1.17187 15H0C0 12.9967 0.780146 11.1133 2.19671 9.69668C3.01359 8.87982 3.9859 8.27511 5.04674 7.90904C3.91052 7.12649 3.16406 5.81684 3.16406 4.33594C3.16406 1.94511 5.10917 0 7.5 0C9.89083 0 11.8359 1.94511 11.8359 4.33594C11.8359 5.81684 11.0895 7.12649 9.95329 7.90904ZM4.33594 4.33594C4.33594 6.08063 5.75534 7.5 7.5 7.5C9.24466 7.5 10.6641 6.08063 10.6641 4.33594C10.6641 2.59125 9.24466 1.17188 7.5 1.17188C5.75534 1.17188 4.33594 2.59125 4.33594 4.33594Z" fill="white"/>
</svg>
