<svg width="21" height="21" viewBox="0 0 21 21" fill="none" xmlns="http://www.w3.org/2000/svg">
<path fill-rule="evenodd" clip-rule="evenodd" d="M8.78302 13.9801C11.63 13.9811 13.9796 11.6619 13.9834 8.84695C13.9873 5.9364 11.6833 3.59436 8.81426 3.59249C5.92867 3.59061 3.59694 5.90849 3.59579 8.77994C3.59471 11.6487 5.91929 13.9791 8.78302 13.9801ZM13.3057 15.1353C9.69656 17.653 5.10856 16.6895 2.68219 13.6191C0.249908 10.5411 0.475406 6.187 3.22783 3.3333C5.90848 0.553964 10.3106 0.216728 13.444 2.5416C16.6987 4.9565 17.6892 9.71467 15.1459 13.3023C15.1894 13.3478 15.2334 13.3958 15.2794 13.4418C16.8773 15.0401 18.4769 16.6368 20.073 18.237C20.7856 18.9513 20.507 20.123 19.5544 20.4121C19.0409 20.5679 18.5961 20.4273 18.22 20.0509C16.975 18.8052 15.7293 17.5601 14.484 16.3148C14.0933 15.924 13.703 15.533 13.3057 15.1353Z" fill="white"/>
<path d="M13.9834 8.84695L13.4834 8.84628V8.84628L13.9834 8.84695ZM8.81426 3.59249L8.81459 3.09249H8.81458L8.81426 3.59249ZM3.59579 8.77994L3.09579 8.77974V8.77975L3.59579 8.77994ZM2.68219 13.6191L2.28989 13.9291L2.2899 13.9291L2.68219 13.6191ZM3.22783 3.3333L3.58771 3.68041L3.58772 3.6804L3.22783 3.3333ZM13.444 2.5416L13.742 2.14006L13.742 2.14006L13.444 2.5416ZM15.1459 13.3023L14.738 13.0131L14.4997 13.3493L14.7842 13.6474L15.1459 13.3023ZM15.2794 13.4418L15.633 13.0883L15.6329 13.0882L15.2794 13.4418ZM20.073 18.237L20.427 17.8839L20.427 17.8839L20.073 18.237ZM19.5544 20.4121L19.6996 20.8906H19.6996L19.5544 20.4121ZM18.22 20.0509L18.5737 19.6975L18.5737 19.6975L18.22 20.0509ZM14.484 16.3148L14.1304 16.6683L14.1305 16.6683L14.484 16.3148ZM8.78285 14.4801C11.9004 14.4812 14.4793 11.9439 14.4834 8.84762L13.4834 8.84628C13.48 11.38 11.3596 13.481 8.7832 13.4801L8.78285 14.4801ZM14.4834 8.84762C14.4876 5.6676 11.9666 3.09455 8.81459 3.09249L8.81393 4.09249C11.3999 4.09418 13.4869 6.20521 13.4834 8.84628L14.4834 8.84762ZM8.81458 3.09249C5.65512 3.09043 3.09706 5.62978 3.09579 8.77974L4.09579 8.78014C4.09683 6.18719 6.20222 4.09079 8.81393 4.09249L8.81458 3.09249ZM3.09579 8.77975C3.0946 11.9238 5.64214 14.479 8.78285 14.4801L8.7832 13.4801C6.19644 13.4792 4.09481 11.3736 4.09579 8.78013L3.09579 8.77975ZM13.0197 14.7253C9.63875 17.0837 5.34548 16.1829 3.07449 13.3091L2.2899 13.9291C4.87165 17.1961 9.75437 18.2223 13.5918 15.5454L13.0197 14.7253ZM3.07449 13.3091C0.799152 10.4297 1.00692 6.35616 3.58771 3.68041L2.86795 2.98619C-0.0561112 6.01784 -0.299335 10.6525 2.28989 13.9291L3.07449 13.3091ZM3.58772 3.6804C6.09055 1.08543 10.2105 0.765084 13.1461 2.94315L13.742 2.14006C10.4106 -0.331629 5.72641 0.0224961 2.86795 2.98619L3.58772 3.6804ZM13.1461 2.94314C16.1929 5.20379 17.1166 9.65784 14.738 13.0131L15.5538 13.5915C18.2618 9.7715 17.2046 4.70921 13.742 2.14006L13.1461 2.94314ZM14.7842 13.6474C14.8182 13.6831 14.8746 13.7441 14.9258 13.7954L15.6329 13.0882C15.5921 13.0475 15.5605 13.0125 15.5077 12.9571L14.7842 13.6474ZM14.9258 13.7953C16.5242 15.3941 18.1231 16.9902 19.7191 18.5901L20.427 17.8839C18.8306 16.2835 17.2305 14.6861 15.633 13.0883L14.9258 13.7953ZM19.719 18.5901C20.1763 19.0485 19.9857 19.7587 19.4092 19.9336L19.6996 20.8906C21.0284 20.4874 21.3949 18.8542 20.427 17.8839L19.719 18.5901ZM19.4092 19.9336C19.0936 20.0294 18.8359 19.9598 18.5737 19.6975L17.8663 20.4043C18.3564 20.8948 18.9881 21.1064 19.6996 20.8906L19.4092 19.9336ZM18.5737 19.6975C17.3286 18.4517 16.0827 17.2064 14.8376 15.9612L14.1305 16.6683C15.3759 17.9138 16.6214 19.1587 17.8664 20.4044L18.5737 19.6975ZM14.8376 15.9612C14.447 15.5705 14.057 15.1798 13.6595 14.7819L12.952 15.4887C13.349 15.8861 13.7397 16.2775 14.1304 16.6683L14.8376 15.9612Z" fill="#151F2A"/>
</svg>
